<svg xmlns="http://www.w3.org/2000/svg" xmlns:xlink="http://www.w3.org/1999/xlink" xmlns:fi="http://pattern.flaticon.com/" x="0" y="0" width="700" height="350" viewBox="0 0 700 350"><rect x="0px" y="0px" width="100%" height="100%" opacity="1" fill="#ffffff"/><defs><g transform="matrix(0.1697916491523753 0.04549553527192747 -0.04549553527192747 0.1697916491523753 318.1654389989498 -53.68308538152938)" id="L1_695"><g><path d="m236.996 190.843s-1.564 6.909-5.868 17.639c-3.599 8.97-6.943 22.72-15.059 35.226-4.942 7.615-13.018 13.442-20.045 21.292-8.409 9.394-18.423 18.663-30.306 27.11-44.451 31.597-97.97 90.266-69.382 158.534 14.004 33.443 58.094 50.365 94.467 42.377 2.204-.484 3.295-2.895 5.433-3.563 1.962-.613 4.977.53 6.871-.242 22.794-9.291 40.169-30.165 40.806-65.136 1.358-74.533-6.917-233.237-6.917-233.237z" fill="#eaf9fa"/><path d="m236.997 190.843s-8.607 37.997-40.975 74.154c-6.704 18.512-14.955 36.171-25.074 50.627-19.192 27.417-28.711 53.011-32.214 75.958-6.555 42.945 15.83 82.759 51.431 101.562 28.84-6.089 52.994-27.718 53.748-69.064 1.358-74.533-6.916-233.237-6.916-233.237z" fill="#d4f2f6"/><path d="m275.141 190.843s12.654 62.306 70.279 103.267c44.451 31.597 96.97 88.266 68.382 156.534-12.927 30.869-49.486 47.662-83.949 43.783-32.189-3.623-60.806-25.281-61.628-70.346-1.358-74.534 6.916-233.238 6.916-233.238z" fill="#eaf9fa"/><path d="m319.308 315.625c-21.006-30.008-31.976-73.807-39.722-110.42-1.811-8.559-4.336-16.725-5.611-24.23-1.831-10.773-2.147-20.184-3.056-27.442-1.226-9.798-1.709-15.671-1.709-15.671h-13.141-13.141s-9.62 117.081-52.097 177.764c-19.192 27.417-28.711 53.011-32.214 75.958-8.668 56.787 33.261 108.11 89.448 112.599 2.638.211 5.307.318 8.004.318 60.142 0 104.527-53.463 95.452-112.917-3.502-22.949-13.021-48.542-32.213-75.959z" fill="#eaf9fa"/><path d="m353.521 391.583c-3.502-22.948-13.022-48.541-32.213-75.959-42.478-60.683-52.098-177.763-52.098-177.763h-13.141-6.742s9.62 117.081 52.098 177.763c19.192 27.417 28.711 53.011 32.213 75.959 8.568 56.132-32.303 106.914-87.51 112.415 3.267.326 6.581.501 9.942.501 60.141.001 106.526-53.462 97.451-112.916z" fill="#d4f2f6"/><path d="m314.709 42.99c-6.073-3.506-13.361-3.995-18.797-.301-2.135 1.451-3.984 3.395-5.362 5.78l-14.192 24.581v-45.261c0-11.206-9.084-20.289-20.29-20.289-11.206 0-20.289 9.084-20.289 20.289v45.261l-13.96-24.18c-4.956-8.585-16.191-11.819-24.681-6.703-8.234 4.962-11.01 15.626-6.182 23.987l50.461 87.402h28.304l50.467-87.402c4.884-8.458 2.98-18.28-5.479-23.164z" fill="#bbf49b"/><path d="m314.709 41.996c-6.073-3.506-13.35-2.983-18.785.71 7.593 5.159 10.038 15.371 5.375 23.449l-50.461 87.402h19.883l50.461-87.402c4.884-8.459 1.986-19.275-6.473-24.159z" fill="#9be69d"/><path d="m346.42 292.111c-57.624-40.961-71.279-101.267-71.279-101.267s-.88 16.882-2.019 42.217c10.901 18.846 27.817 40.855 53.415 59.05 44.451 31.597 97.97 90.265 69.382 158.534-10.471 25.004-37.759 40.751-66.065 43.778 34.464 3.88 73.022-12.908 85.949-43.778 28.587-68.269-24.932-126.938-69.383-158.534z" fill="#d4f2f6"/></g><path d="m406.849 340.986c-2.373-3.396-7.049-4.227-10.443-1.853-3.396 2.372-4.226 7.048-1.854 10.443 23 32.927 27.822 65.956 14.332 98.171-6.506 15.537-21.293 28.266-40.569 34.921-14.195 4.901-29.204 6.069-42.872 3.536 3.978-3.435 7.73-7.175 11.204-11.221 20.069-23.364 28.921-54.175 24.288-84.532-4.053-26.556-15.318-53.178-33.483-79.127-10.042-14.346-18.207-32.117-24.809-50.717 10.181 12.919 23.104 26.009 39.432 37.616 11.792 8.382 22.621 17.537 32.185 27.213 1.467 1.484 3.4 2.228 5.335 2.228 1.904 0 3.81-.722 5.272-2.166 2.946-2.912 2.973-7.661.061-10.606-10.172-10.29-21.666-20.012-34.163-28.895-38.62-27.452-56.671-63.931-64.094-83.661-4.039-19.283-6.576-36.275-8.026-47.505l49.032-84.925c6.815-11.804 2.864-27.128-8.807-34.161-5.721-3.448-12.503-4.41-19.099-2.708-6.676 1.722-12.472 6.102-15.913 12.024v-17.272c.001-15.323-12.466-27.789-27.789-27.789s-27.79 12.466-27.79 27.789v17.271c-3.441-5.922-9.237-10.303-15.913-12.024-6.594-1.701-13.378-.739-19.099 2.708-11.671 7.033-15.621 22.358-8.806 34.161l15.986 27.689c2.072 3.587 6.659 4.815 10.245 2.745 3.587-2.071 4.816-6.658 2.745-10.245l-15.986-27.689c-2.756-4.773-1.16-10.971 3.558-13.813 2.244-1.353 4.945-1.719 7.611-1.031 2.825.729 5.268 2.573 6.704 5.06l13.96 24.181c1.697 2.939 5.156 4.373 8.436 3.494 3.279-.878 5.559-3.85 5.559-7.244v-45.263c0-7.052 5.737-12.789 12.79-12.789 7.052 0 12.79 5.737 12.79 12.789v45.262c0 3.395 2.28 6.366 5.559 7.244 3.277.878 6.739-.555 8.436-3.494l13.96-24.181c1.436-2.486 3.879-4.331 6.704-5.06 2.664-.687 5.367-.32 7.611 1.031 4.718 2.843 6.314 9.04 3.559 13.813l-48.296 83.651h-20.644l-16.054-27.806c-2.071-3.588-6.659-4.815-10.245-2.745-3.587 2.071-4.816 6.658-2.745 10.245l16.79 29.08c-1.449 11.23-3.986 28.22-8.024 47.502-7.423 19.73-25.475 56.212-64.096 83.665-19.706 14.008-46.852 37.165-64.263 67.935-18.84 33.295-21.428 66.809-7.692 99.608 8.154 19.474 26.2 35.259 49.509 43.307 10.91 3.768 22.274 5.646 33.383 5.646 10.472 0 20.714-1.679 30.133-5.014 1.782 1.043 3.589 2.055 5.447 3.002 1.091.557 2.255.82 3.401.82 2.73 0 5.362-1.496 6.688-4.095 1.881-3.69.416-8.207-3.274-10.089-35.006-17.85-54.566-55.788-48.672-94.403 3.702-24.256 14.113-48.745 30.944-72.789 14.544-20.777 26.853-49.884 36.583-86.511 7.315-27.538 11.724-53.859 14.24-72.358h16.543c2.517 18.501 6.926 44.822 14.241 72.357 9.73 36.628 22.038 65.734 36.583 86.512 16.83 24.044 27.241 48.533 30.943 72.789 3.973 26.028-3.622 52.452-20.838 72.495-17.354 20.203-42.576 31.79-69.2 31.79-4.24 0-8.498-.291-12.655-.866-4.104-.567-7.89 2.3-8.456 6.402-.567 4.103 2.299 7.89 6.402 8.457 4.835.668 9.784 1.007 14.708 1.007 19.076 0 37.529-5.115 53.615-14.525 9.422 3.338 19.667 5.018 30.146 5.018 11.107 0 22.474-1.88 33.382-5.646 23.309-8.048 41.354-23.833 49.509-43.307 15.383-36.74 9.894-75.661-15.875-112.552zm-222.162-29.662c-18.165 25.949-29.431 52.571-33.484 79.127-5.564 36.45 8.316 72.369 35.441 95.761-13.656 2.521-28.645 1.352-42.822-3.544-19.276-6.655-34.063-19.384-40.569-34.921-9.9-23.642-23.208-85.537 66.809-149.523 16.329-11.607 29.252-24.698 39.433-37.617-6.601 18.6-14.766 36.37-24.808 50.717z"/></g><g transform="matrix(0.039060287177562714 0 0 0.039060287177562714 77.5 340)" id="L1_696"><g><path d="m447.821 92.004 50.936-50.936c7.676-7.676 7.676-20.121 0-27.797-7.676-7.676-20.121-7.676-27.797 0l-50.936 50.936c4.098 13.591 14.206 23.7 27.797 27.797z" fill="#b67f5f"/><path d="m433.44 239.27 20.541-20.541c45.475-45.475 47.475-117.206 2-162.681-4.742-4.742-9.792-8.99-15.085-12.744-45.461-32.237-108.863-27.989-149.596 12.744l-20.542 20.542c-28.291 28.291-63.676 48.205-102.258 58.798-39.952 10.97-79.479 33.482-112.953 66.956-56.023 56.024-51.971 158.394-42.136 223.667 1.767 11.73 5.855 22.667 11.786 32.333 13.047 21.266 33.015 34.384 58.82 38.273 65.273 9.836 167.643 13.887 223.667-42.137 33.474-33.474 55.986-73 66.956-112.953 10.595-38.581 30.508-73.965 58.8-102.257z" fill="#bbf49b"/><path d="m376.641 343.528c10.594-38.582 30.508-73.967 58.799-102.258l20.541-20.541c45.475-45.475 45.475-119.206 0-164.681-4.743-4.743-9.796-8.983-15.09-12.737 32.237 45.461 27.996 108.859-12.737 149.591l-20.541 20.541c-28.291 28.291-48.205 63.676-58.799 102.258-10.97 39.952-33.482 79.479-66.956 112.953-56.024 56.024-158.394 51.972-223.667 42.136-11.895-1.792-22.969-5.977-32.735-12.044 13.077 21.052 34.921 36.007 60.562 39.871 65.273 9.836 167.644 13.887 223.668-42.137 33.472-33.473 55.984-73 66.955-112.952z" fill="#9be69d"/><path d="m332.118 321.346c8.424-27.627 30.458-60.276 51.199-81.017l29.202-29.202c29.862-29.862 34.367-74.953 12.559-106.455-2.36-3.409-5.041-6.65-8.018-9.704-3.054-2.977-6.295-5.658-9.703-8.018-31.502-21.807-76.593-17.303-106.455 12.56l-29.202 29.202c-20.741 20.741-53.39 42.775-81.017 51.199-28.609 8.724-64.258 32.699-88.798 57.239-41.073 41.073-40.604 113.621-35.159 159.709.978 8.282 3.622 15.947 7.603 22.667 2.278 3.846 4.91 7.28 7.866 10.308 3.028 2.956 6.462 5.587 10.308 7.866 6.72 3.981 14.385 6.625 22.667 7.603 46.088 5.445 118.636 5.914 159.709-35.159 24.54-24.54 48.515-60.19 57.239-88.798z" fill="#ffaa5f"/><g fill="#b67f5f"><path d="m163.974 270.958c-2.805-2.805-2.805-7.354 0-10.159 2.805-2.805 7.353-2.805 10.159 0 2.805 2.805 2.805 7.353 0 10.159-2.806 2.805-7.354 2.806-10.159 0z"/><path d="m201.522 308.507c-2.805-2.805-2.805-7.353 0-10.159 2.805-2.805 7.353-2.805 10.159 0 2.805 2.805 2.805 7.353 0 10.159-2.805 2.805-7.354 2.805-10.159 0z"/><path d="m142.225 367.804c-2.805-2.805-2.805-7.354 0-10.159 2.805-2.805 7.353-2.805 10.159 0 2.805 2.805 2.805 7.353 0 10.159-2.805 2.805-7.354 2.805-10.159 0z"/><path d="m151.652 322.828c-2.805-2.805-2.805-7.353 0-10.159 2.805-2.805 7.353-2.805 10.159 0 2.805 2.805 2.805 7.353 0 10.159-2.806 2.806-7.354 2.806-10.159 0z"/><path d="m189.2 360.377c-2.805-2.805-2.805-7.353 0-10.159 2.805-2.805 7.353-2.805 10.159 0 2.805 2.805 2.805 7.353 0 10.159-2.805 2.805-7.353 2.805-10.159 0z"/><path d="m239.07 346.055c-2.805-2.805-2.805-7.353 0-10.159 2.805-2.805 7.353-2.805 10.159 0 2.805 2.805 2.805 7.353 0 10.159-2.805 2.805-7.353 2.805-10.159 0z"/></g></g><g><path d="m504.084 7.946c-10.596-10.593-27.831-10.591-38.425 0l-25.684 25.684c-22.558-14.297-49.377-20.969-76.235-18.819-29.311 2.338-56.92 15.092-77.741 35.912l-4.05 4.05c-2.934 2.935-2.934 7.692 0 10.627 2.936 2.934 7.691 2.934 10.627 0l4.05-4.05c18.296-18.297 42.556-29.505 68.309-31.56 25.484-2.037 50.91 4.941 71.628 19.631 4.997 3.544 9.747 7.557 14.118 11.929 42.473 42.472 42.473 111.581.001 154.054l-20.543 20.541c-28.623 28.624-49.624 65.134-60.73 105.582-9.908 36.083-29.283 70.729-56.033 100.194-2.789 3.073-2.56 7.824.513 10.614 1.44 1.307 3.247 1.95 5.049 1.95 2.045 0 4.082-.83 5.566-2.463 28.328-31.205 48.867-67.969 59.396-106.317 10.419-37.94 30.083-72.15 56.866-98.934l20.543-20.542c41.734-41.734 47.424-106.065 17.084-153.969l25.692-25.691c10.592-10.593 10.592-27.83-.001-38.423zm-10.626 27.797-23.987 23.987c-2.549-3.101-5.268-6.109-8.164-9.006-2.866-2.867-5.892-5.58-9.019-8.153l23.998-23.998c4.735-4.733 12.438-4.735 17.172 0 4.733 4.733 4.733 12.436 0 17.17z"/><path d="m70.854 195.664c1.733 0 3.476-.597 4.894-1.815 28.198-24.234 60.964-41.948 94.755-51.227 37.098-10.186 71.189-28.868 98.588-54.029 3.057-2.807 3.259-7.56.452-10.616-2.806-3.056-7.561-3.258-10.616-.452-25.647 23.552-57.6 41.051-92.402 50.607-35.921 9.863-70.698 28.646-100.571 54.321-3.147 2.704-3.506 7.448-.801 10.596 1.486 1.729 3.587 2.615 5.701 2.615z"/><path d="m290.814 462.838c-24.653 18.286-58.295 29.356-99.99 32.904-31.118 2.646-65.999 1.11-103.674-4.567-23.09-3.478-43.331-16.882-55.535-36.772-5.552-9.049-9.172-18.981-10.76-29.522-5.907-39.202-7.332-75.31-4.235-107.318 4.168-43.081 16.529-77.285 36.74-101.662 2.648-3.194 2.206-7.932-.988-10.58-3.193-2.648-7.931-2.207-10.58.988-22.165 26.733-35.667 63.678-40.13 109.807-3.216 33.236-1.758 70.583 4.334 111.004 1.889 12.544 6.199 24.368 12.811 35.144 14.527 23.678 38.622 39.632 66.104 43.772 26.477 3.99 51.661 5.992 75.24 5.992 11.01 0 21.67-.437 31.946-1.312 44.517-3.787 80.741-15.834 107.67-35.807 3.333-2.473 4.03-7.179 1.559-10.512-2.473-3.333-7.179-4.031-10.512-1.559z"/><path d="m67.878 423.344c2.554 4.309 5.566 8.254 8.952 11.726.043.043.087.087.13.13 3.472 3.387 7.417 6.398 11.726 8.952 7.8 4.62 16.418 7.514 25.615 8.601 15.074 1.781 29.556 2.671 43.353 2.671 14.219 0 27.712-.945 40.374-2.837 35.13-5.246 62.778-17.743 82.177-37.141 26.749-26.75 50.505-63.69 59.113-91.921h-.001c7.381-24.202 27.664-56.233 49.326-77.895l29.201-29.201c32.103-32.104 37.748-80.907 13.425-116.045-2.58-3.727-5.546-7.317-8.815-10.672-.045-.046-.091-.092-.137-.137-3.355-3.27-6.945-6.235-10.672-8.814-35.138-24.326-83.942-18.679-116.045 13.424l-29.201 29.201c-21.662 21.663-53.694 41.946-77.895 49.325-28.231 8.609-65.172 32.365-91.921 59.113-19.397 19.398-31.895 47.047-37.141 82.177-3.727 24.949-3.782 53.119-.166 83.728 1.088 9.199 3.982 17.817 8.602 25.615zm39.333-180.892c25.161-25.162 59.592-47.411 85.677-55.365 30.873-9.414 64.504-33.439 84.139-53.073l29.201-29.201c26.965-26.967 67.704-31.883 96.865-11.694 3.016 2.086 5.931 4.492 8.667 7.152 2.66 2.736 5.066 5.651 7.153 8.667 20.188 29.163 15.269 69.901-11.695 96.865l-29.201 29.201c-19.633 19.634-43.657 53.264-53.072 84.139h-.001c-7.953 26.084-30.203 60.516-55.365 85.677-39.8 39.801-113.267 37.768-153.514 33.01-7.102-.839-13.736-3.061-19.719-6.606-3.255-1.928-6.224-4.187-8.824-6.714-2.527-2.601-4.786-5.569-6.715-8.824-3.544-5.982-5.767-12.616-6.605-19.719-4.757-40.251-6.792-113.716 33.009-153.515z"/><path d="m174.146 270.946c2.805-2.805 2.805-7.353 0-10.159-2.805-2.805-7.354-2.805-10.159 0-2.805 2.805-2.805 7.353 0 10.159s7.353 2.806 10.159 0z"/><path d="m211.694 308.494c2.805-2.805 2.805-7.353 0-10.159-2.805-2.805-7.354-2.805-10.159 0-2.805 2.805-2.805 7.353 0 10.159s7.354 2.806 10.159 0z"/><path d="m152.397 367.792c2.805-2.805 2.805-7.353 0-10.159-2.805-2.805-7.353-2.805-10.158 0-2.805 2.805-2.805 7.353 0 10.159 2.805 2.805 7.353 2.805 10.158 0z"/><path d="m161.824 322.816c2.805-2.805 2.805-7.353 0-10.159-2.805-2.805-7.354-2.805-10.159 0-2.805 2.805-2.805 7.354 0 10.159 2.805 2.806 7.353 2.806 10.159 0z"/><path d="m199.372 360.365c2.805-2.805 2.805-7.353 0-10.159-2.805-2.805-7.353-2.805-10.159 0-2.805 2.805-2.805 7.353 0 10.159 2.806 2.805 7.354 2.805 10.159 0z"/><path d="m249.242 346.043c2.805-2.805 2.805-7.354 0-10.159s-7.353-2.805-10.159 0c-2.805 2.805-2.805 7.353 0 10.159 2.806 2.805 7.354 2.805 10.159 0z"/></g></g><g transform="matrix(0.07812514901161194 0 0 0.07812514901161194 155 330)" id="L1_697"><g><path d="m446.049 135.489c-29.106 29.106-116.883 47.401-116.883 47.401s18.295-87.778 47.401-116.883c24.384-24.384 55.816-33.983 76.655-25.174 4.036 1.706 7.674 4.102 10.787 7.215 19.187 19.186 11.146 58.335-17.96 87.441z" fill="#bbf49b"/><path d="m464.009 48.047c-3.113-3.113-6.757-5.497-10.792-7.203 8.809 20.839-.778 52.265-25.162 76.649-19.411 19.411-64.911 34.011-93.073 41.586-3.783 14.065-5.815 23.81-5.815 23.81s87.777-18.295 116.883-47.401c29.105-29.105 37.146-68.254 17.959-87.441z" fill="#9be69d"/><path d="m265.658 82.699c3.154 24.381 28.687 59.022 46.401 80.525 9.734 11.816 17.107 19.666 17.107 19.666s40.812-75.273 35.925-113.052c-3.219-24.89-15.699-45.426-31.691-55.526-8.282-5.23-17.506-7.662-26.874-6.45-27.457 3.552-45.755 37.057-40.868 74.837z" fill="#6ed5a1"/><path d="m429.357 246.398c-37.78-4.887-100.191-63.508-100.191-63.508s75.273-40.812 113.052-35.926c14.167 1.833 26.924 6.665 37.148 13.438 17.041 11.288 27.047 27.966 24.827 45.127-3.551 27.458-37.056 45.756-74.836 40.869z" fill="#6ed5a1"/><path d="m504.194 205.529c2.203-17.032-7.643-33.582-24.449-44.866 5.23 8.282 7.666 17.503 6.454 26.871-3.552 27.458-37.057 45.755-74.837 40.869-24.383-3.154-59.022-28.688-80.525-46.402-1.081.569-1.671.889-1.671.889s62.411 58.621 100.191 63.508 71.285-13.411 74.837-40.869z" fill="#46cc8d"/><path d="m347.096 51.842c4.458 34.467-29.114 100.129-35.037 111.381 9.732 11.814 17.106 19.666 17.106 19.666s40.812-75.273 35.925-113.052c-3.219-24.891-15.701-45.422-31.694-55.521 6.908 10.289 11.845 23.181 13.7 37.526z" fill="#46cc8d"/><path d="m283.698 416.863c-2.433 2.433-19.074 17.067-21.337 18.833-71.323 55.633-166.757 67.282-218.308 68.726-20.008.56-33.197-9.671-35.994-27.425-.442-2.804-.625-5.793-.537-8.953.615-21.962 2.921-52.076 9.667-84.926l.548-2.354 3.576-6.222.428-10.989.543-2.335c12.106-46.369 33.707-95.658 71.909-133.86 9.431-9.431 18.746-17.99 27.926-25.714.335-.282.891-.736 1.594-1.305 1.417-1.145 5.011-1.48 7.054-3.106 2.383-1.896 3.224-5.089 4.754-6.301.989-.783 1.608-1.272 1.608-1.272 81.924-61.861 151.969-56.572 196.903-11.638 7.901 7.901 14.577 16.579 19.877 25.961 29.989 53.085 14.946 127.722-70.211 212.88z" fill="#eaf9fa"/><path d="m353.91 203.983c-5.3-9.382-11.976-18.06-19.877-25.961-3.39-3.39-6.926-6.551-10.597-9.478 3.921 4.908 7.431 10.053 10.473 15.439 29.988 53.085 15.946 128.722-69.212 213.879-2.432 2.432-19.073 17.067-21.337 18.833-71.323 55.633-167.757 66.282-219.308 67.726-5.426.152-10.345-.496-14.696-1.866 4.481 14.303 16.883 22.365 34.696 21.866 51.551-1.443 147.985-12.093 219.308-67.726 2.264-1.766 18.905-16.401 21.337-18.833 85.159-85.157 99.201-160.794 69.213-213.879z" fill="#d4f2f6"/></g><g><path d="m99.496 232.662c9.127-9.127 18.363-17.632 27.451-25.278.389-.327 1.143-.94 2.101-1.71l42.963 42.962c1.464 1.464 3.384 2.196 5.303 2.196s3.839-.732 5.303-2.196c2.929-2.93 2.929-7.678 0-10.607l-41.756-41.756c.309-.244.599-.474.853-.675 11.148-8.414 22.354-15.752 33.308-21.809 3.625-2.005 4.938-6.568 2.934-10.192-2.005-3.624-6.567-4.938-10.193-2.935-11.593 6.41-23.42 14.153-35.153 23.014-.044.033-.088.067-.131.102-.523.413-12.82 10.136-15.189 12.128-9.416 7.923-18.972 16.721-28.401 26.149-34.146 34.146-58.997 80.33-73.863 137.268-.017.065-.033.13-.048.195l-5.095 21.899c-.015.063-.028.127-.042.19-7.084 34.497-9.25 65.931-9.818 86.225-.1 3.585.11 7.061.625 10.331 3.302 20.958 19.288 33.779 41.907 33.779.563 0 1.134-.009 1.706-.025 26.555-.743 67.21-4.012 110.09-15.363 4.004-1.06 6.391-5.165 5.331-9.169-1.061-4.005-5.165-6.395-9.17-5.331-41.49 10.983-80.909 14.148-106.671 14.869-16.073.453-26.161-7.04-28.375-21.095-.373-2.363-.524-4.912-.449-7.577.538-19.214 2.552-48.711 9.025-81.183l11.178 11.177c1.464 1.464 3.384 2.196 5.303 2.196s3.839-.732 5.303-2.196c2.929-2.93 2.929-7.678 0-10.608l-17.84-17.84 1.579-6.785c14.186-54.276 37.714-98.135 69.931-130.35z"/><path d="m483.508 154.149c-9.428-6.245-20.457-10.76-32.264-13.252.035-.035.074-.07.109-.105 15.103-15.103 25.449-33.299 29.133-51.235 3.917-19.066-.052-35.692-11.173-46.813-3.739-3.739-8.17-6.707-13.171-8.821-7.839-3.312-16.789-4.474-26.599-3.448-4.12.43-7.111 4.118-6.681 8.238.43 4.119 4.121 7.117 8.238 6.68 7.263-.757 13.723.031 19.202 2.347 3.211 1.357 6.038 3.245 8.404 5.611 7.438 7.438 9.955 19.225 7.087 33.188-3.101 15.095-11.995 30.595-25.046 43.646-3.018 3.018-7 6.104-11.833 9.187-26.484 2.179-60.605 16.243-83.023 26.794 10.55-22.414 24.613-56.533 26.793-83.021 3.084-4.836 6.17-8.818 9.187-11.835 6.372-6.372 13.349-11.77 20.737-16.047 3.585-2.075 4.809-6.663 2.734-10.248s-6.663-4.809-10.248-2.734c-8.518 4.93-16.536 11.128-23.83 18.422-.036.035-.071.075-.106.11-4.822-22.929-17.094-42.323-33.753-52.842-10.03-6.335-21.04-8.946-31.84-7.548-15.723 2.034-29.284 12.13-38.184 28.427-8.473 15.515-11.726 34.98-9.161 54.811 1.388 10.733 7.524 28.783 27.237 57.056-26.52-7.374-56.067-5.57-86.934 5.765-3.888 1.428-5.883 5.737-4.455 9.625 1.428 3.889 5.738 5.884 9.626 4.455 24.959-9.165 48.664-11.576 70.453-7.168 20.505 4.148 38.87 14.22 54.583 29.932.472.472.924.955 1.387 1.432.03.031.059.062.089.092 6.814 7.055 12.595 14.719 17.174 22.822 14.745 26.102 17.401 56.097 7.896 89.151-10.674 37.12-36.205 76.061-75.881 115.736-1.018 1.019-4.965 4.553-9.153 8.252l-80.256-80.256c-2.929-2.928-7.678-2.928-10.606 0-2.929 2.93-2.929 7.678 0 10.607l79.508 79.508c-.049.039-.102.082-.139.112-21.651 16.889-47.514 30.85-76.869 41.494-3.894 1.412-5.906 5.714-4.494 9.607 1.106 3.05 3.984 4.945 7.051 4.945.849 0 1.712-.146 2.556-.451 30.839-11.183 58.085-25.908 80.981-43.768 2.455-1.915 19.385-16.801 22.028-19.443 41.494-41.494 68.306-82.607 79.69-122.198 7.516-26.138 8.016-51.389 1.634-74.378 28.28 19.72 46.334 25.857 57.069 27.246 4.422.571 8.825.854 13.171.854 15.143 0 29.585-3.433 41.639-10.016 16.297-8.9 26.392-22.461 28.426-38.185 2.516-19.442-7.998-39.008-28.123-52.34zm-210.412-72.412c-4.348-33.618 11.08-63.422 34.393-66.437 7.29-.949 14.867.906 21.906 5.353 14.624 9.235 25.452 28.45 28.258 50.146.914 7.068 1.419 34.069-27.507 93.552-5.54-4.608-11.331-8.664-17.353-12.145-23.552-29.578-37.641-54.573-39.697-70.469zm223.66 122.83c-3.015 23.313-32.824 38.745-66.437 34.393-15.903-2.057-40.906-16.148-70.496-39.713-3.485-6.025-7.536-11.825-12.116-17.338 59.486-28.926 86.485-28.418 93.549-27.505 12.577 1.626 24.323 5.862 33.968 12.252 15.247 10.098 23.296 24.271 21.532 37.911z"/></g></g><g transform="matrix(0.040479112416505814 0 0 0.040479112416505814 252.5 340)" id="L1_698"><g><path d="m11.938 229.128c-.557-9.999 10.382-16.265 18.826-10.882 55.258 35.227 239.674 3.243 332.021-177.051 4.039-7.886 15.272-7.964 19.487-.171 23.09 42.69 45.671 163.753-78.395 253.264-179.281 129.347-288.083 4.045-291.939-65.16z" fill="#ffca28"/><path d="m13.265 318.731c-.499-2.353-1.424-4.609-.857-6.664 2.145-7.768 10.965-12.652 19.293-8.991 68.905 30.296 272.634-38.356 345.838-259.213 3.202-9.66 15.939-11.719 22.091-3.611 33.698 44.41 80.564 177.873-44.569 301.241-115.413 113.784-216.429 104.774-278.703 63.116-.339-.227-.677-1.48-1.014-1.709-8.507-5.778-15.191-11.138-22.071-17.898-21.198-20.828-35.541-45.206-40.008-66.271z" fill="#ffd54f"/><path d="m355.06 341.493c125.133-123.368 78.267-256.831 44.569-301.241-2.662-3.508-6.557-5.109-10.379-5.018-4.505 10.201-5.674 23.007-3.945 38.841 13.414 122.817-152.256 276.797-243.51 297.184-96.991 21.668-129.38-59.189-129.38-59.189-.568 2.055-.675 4.308-.176 6.662 16.516 77.88 161.998 201.033 342.821 22.761z" fill="#ffca28"/><path d="m68.199 429.296c-6.795-7.402-4.653-19.565 4.569-23.555 2.794-1.209 6.034-1.599 9.431-.835 73.482 16.528 291.97-103.495 311.024-299.484l61.112 14.398c3.361.792 6.718.544 9.756-.509 0 0 73.696 226.135-115.244 327.192-168.532 90.138-262.347 2.728-280.648-17.207z" fill="#ffd54f"/><path d="m464.091 119.31c-3.038 1.053-6.395 1.301-9.756.509l-7.286-1.717c12.845 58.705 32.919 223.646-120.759 305.842-135.346 72.391-222.501 30.27-261.057.549.659 1.718 1.636 3.352 2.966 4.802 18.301 19.936 112.116 107.346 280.647 17.205 188.94-101.055 115.245-327.19 115.245-327.19z" fill="#ffca28"/><path d="m479.886 84.591-5.464 22.166c-2.223 9.437-10.651 14.26-20.088 12.036l-15.672-2.667-68.374-16.109c-25.339-5.97-41.04-31.35-35.071-56.689l4.861-20.632c2.49-10.569 13.076-17.118 23.645-14.628l82.508 19.438c25.057 5.905 39.559 32.028 33.655 57.085z" fill="#b67f5f"/><path d="m446.232 27.508s23.314 7.722 14.044 51.93l-5.464 23.192c-1.83 7.769-8.562 13.093-16.149 13.497l15.672 3.692c9.437 2.223 18.89-3.625 21.113-13.062l5.464-23.192c5.903-25.056-9.624-50.154-34.68-56.057z" fill="#a06e50"/></g><path d="m482.75 108.434 5.464-23.192c6.842-29.042-11.22-58.235-40.261-65.078l-50.707-11.946c-4.022-.949-8.069 1.548-9.02 5.581-.95 4.032 1.548 8.07 5.58 9.02l50.707 11.946c20.99 4.945 34.045 26.046 29.1 47.038l-5.464 23.191c-.807 3.424-3.289 6.02-6.371 7.14-.002.001-.004.001-.006.002s-.004.001-.005.002c-1.774.643-3.744.801-5.711.338l-84.047-19.801c-21.272-5.012-34.502-26.396-29.49-47.669l4.86-20.631c1.538-6.527 8.098-10.587 14.626-9.048 4.025.95 8.07-1.548 9.02-5.581.95-4.032-1.548-8.07-5.58-9.02-14.572-3.432-29.231 5.63-32.665 20.209l-4.86 20.631c-3.025 12.84-1.229 25.708 4.208 36.7-25.258 37.328-56.203 68.632-92.069 93.055-3.423 2.332-4.309 6.997-1.978 10.421 1.452 2.131 3.808 3.279 6.206 3.279 1.454 0 2.922-.421 4.214-1.301 35.897-24.445 67.06-55.456 92.77-92.259 1.96 2.095 4.094 4.036 6.379 5.812-42.687 87.122-103.41 136.744-147.284 163.159-49.908 30.048-104.855 45.66-144.221 41.102-21.391-21.488-35.4-49.208-36.718-72.866-.144-2.58 1.536-3.851 2.265-4.277.757-.443 2.765-1.315 5.042.136 18.138 11.563 46.797 16.103 80.702 12.782 46.384-4.543 86.407-21.943 111.814-35.741 3.64-1.977 4.988-6.53 3.012-10.17-1.977-3.64-6.529-4.989-10.17-3.012-56.843 30.868-138.701 48.094-177.294 23.492-6.324-4.032-14.248-4.198-20.681-.434-6.375 3.73-10.078 10.649-9.666 18.058 1.172 21.037 10.828 44.62 26.205 65.336-6.403-1.433-13.137.081-18.335 4.308-6.255 5.087-9.097 13.171-7.417 21.096 6.283 29.627 27.987 60.842 57.668 83.646-2.645 2.836-4.505 6.385-5.357 10.386-1.527 7.167.515 14.662 5.461 20.049 10.242 11.157 39.27 38.56 87.494 52.033 18.445 5.153 37.523 7.724 57.199 7.724 45.411 0 93.969-13.707 145.016-41.01 3.652-1.954 5.03-6.498 3.076-10.15-1.953-3.653-6.496-5.032-10.15-3.076-69.641 37.248-133.939 48.036-191.105 32.065-44.505-12.434-71.108-37.521-80.48-47.729-1.669-1.818-2.356-4.353-1.839-6.78.276-1.295 1.145-3.644 3.861-4.82 1.496-.648 3.113-.784 4.807-.401 18.502 4.16 44.16.717 74.2-9.963 30.479-10.836 62.605-28.151 92.906-50.073 39.753-28.761 74.315-64.128 99.949-102.276 28.619-42.592 46.127-88.052 52.12-135.251l52.888 12.46c1.925.453 3.85.67 5.746.67.125 0 .247-.014.372-.016 4.117 15.207 13.812 56.953 11.714 106.361-1.535 36.145-8.996 69.284-22.176 98.496-16.395 36.338-41.797 66.758-75.501 90.414-3.391 2.379-4.21 7.057-1.83 10.447 1.46 2.079 3.784 3.192 6.146 3.192 1.488 0 2.991-.442 4.302-1.362 36.018-25.279 63.161-57.842 80.675-96.784 13.956-31.033 21.826-66.109 23.392-104.254 2.157-52.573-8.149-95.807-12.446-111.265 4.722-3.404 8.3-8.441 9.738-14.541zm-147.591 133.068c-24.658 36.697-57.955 70.754-96.291 98.489-29.162 21.098-59.985 37.728-89.139 48.092-26.975 9.591-50.373 12.951-65.882 9.462-1.764-.397-3.537-.584-5.294-.572-30-20.733-53.035-51.833-58.975-79.841-.743-3.504 1.296-5.606 2.207-6.347 1.958-1.592 4.536-1.924 6.899-.885 6.637 2.918 14.362 5.005 22.96 6.202 6.059.839 12.221 1.188 18.334 1.187 40.609-.001 91.685-16.046 138.125-44.006 45.462-27.371 108.307-78.671 152.575-168.508 2.527 1.016 5.161 1.857 7.892 2.5l16.47 3.88c-5.504 45.425-22.263 89.245-49.881 130.347z"/></g><g transform="matrix(0.07812897115945816 0 0 0.07812897115945816 67.5 67.5)" id="L1_699"><g><path d="m12.3 452.954c-6.257 6.257-6.257 16.402 0 22.659l24.18 24.18c6.257 6.257 16.402 6.257 22.659 0l40.911-40.911-46.839-46.84z" fill="#00c27a"/><path d="m336.612 335.027c87.402-126.794 137.142-222.901 163.84-282.393 7.349-16.376.983-31.984-11.974-39.698-1.613-.961-3.313-2.783-5.082-3.45-7.296-2.752-15.767-2.858-24.176.916-59.492 26.698-155.599 76.438-282.393 163.84-223.797 154.266-148.815 230.359-107.8 271.374 32.974 32.974 111.257 116.196 267.585-110.589z" fill="#ffd54f"/><path d="m482.513 33.695c-20.781 46.305-55.541 114.811-111.138 202.69-10.966 17.334-29.398 28.423-49.808 30.46-73.366 7.32-147.236 50.182-202.046 90.462-12.694 18.993-34.713 54.07-49.474 89.329 33.573 33.612 112.823 112.875 267.565-111.61 87.402-126.794 137.142-222.901 163.84-282.393 7.349-16.376-.017-32.984-12.974-40.698-1.613-.96-3.315-1.778-5.084-2.445 2.765 7.305 2.899 15.781-.881 24.205z" fill="#ffca28"/><path d="m397.765 299.238c-2.026-.389-4.057-1.74-6.092-2.056-100.932-15.649-211.936 57.412-277.14 110.332 60.485-75.259 151.142-212.382 125.849-333.236-3.033-14.491-22.161-17.884-29.929-5.281-17.456 28.324-44.205 69.185-66.388 92.127l-83.302 86.151c-51.905 53.679-58.812 154.572-1.483 211.901 6.732 6.732 14.508 11.56 23.033 16.442 49.171 28.153 122.294 25.81 165.232-17.129l74.406-74.406c19.812-19.812 55.284-43.894 79.893-59.638 10.954-7.008 8.692-22.758-4.079-25.207z" fill="#bbf49b"/><path d="m397.765 298.238c-2.026-.388-4.059-.727-6.094-1.043-.611 3.711-2.692 7.245-6.436 9.64-24.609 15.744-60.081 39.826-79.893 59.638l-74.406 74.406c-47.334 47.334-132.56 46.548-180.484 8.498 2.756 3.384 5.69 6.66 8.828 9.798 45.563 45.564 138.882 49.696 189.265-.687l74.406-74.406c19.812-19.812 55.284-43.894 79.893-59.638 10.954-7.007 7.692-23.757-5.079-26.206z" fill="#9be69d"/></g><g><path d="m294.561 401.829-51.354 51.353c-18.945 18.946-45.987 30.863-76.142 33.558-28.594 2.552-58.137-3.509-81.06-16.634-8.103-4.639-15.321-10.102-21.456-16.236-24.834-24.834-38.358-59.873-38.081-98.664.029-4.143-3.304-7.524-7.446-7.554-.019 0-.037 0-.055 0-4.117 0-7.469 3.323-7.499 7.446-.186 26.06 5.334 50.637 15.913 72.13l-20.419 20.42c-9.171 9.171-9.171 24.094 0 33.267l24.18 24.179c4.586 4.587 10.609 6.88 16.634 6.88 6.023-.001 12.047-2.293 16.632-6.878l19.224-19.224c20.859 10.774 45.16 16.463 70.1 16.463 4.872 0 9.769-.217 14.667-.654 33.653-3.007 63.987-16.463 85.415-37.891l51.354-51.354c2.929-2.93 2.929-7.678 0-10.607-2.93-2.928-7.678-2.928-10.607 0zm-240.76 92.659c-3.323 3.321-8.729 3.323-12.053-.001l-24.18-24.179c-3.323-3.323-3.323-8.73 0-12.053l17.439-17.439c5.435 8.551 11.758 16.483 18.935 23.661 4.903 4.903 10.398 9.411 16.382 13.487z"/><path d="m492.281 5.49c-1.998-1.19-4.11-2.208-6.274-3.024-9.622-3.629-20.239-3.241-29.894 1.09-25.988 11.663-53.758 25.377-82.538 40.763-3.653 1.953-5.031 6.497-3.079 10.15 1.953 3.653 6.498 5.029 10.15 3.078 28.477-15.224 55.934-28.784 81.608-40.306 7.71-3.46 14.293-2.313 18.46-.74 1.34.505 2.648 1.137 3.892 1.877 9.397 5.595 15.838 18.101 9.968 31.183-22.272 49.629-63.566 131.037-134.056 237.997-37.995.473-79.569 11.276-124.053 32.294-27.267 12.884-55.221 29.352-83.515 49.179 21.825-30.828 45.1-68.033 63.451-107.901 20.958-45.531 32.732-88.233 35.262-127.63 34.181-21.847 67.957-42.143 100.437-60.327 3.614-2.023 4.904-6.594 2.88-10.208-2.023-3.613-6.593-4.904-10.208-2.88-30.006 16.799-61.099 35.376-92.59 55.304-.132-14.723-1.628-28.948-4.496-42.647-2.018-9.642-9.582-16.965-19.271-18.658-9.662-1.687-19.233 2.621-24.383 10.978-18.003 29.211-43.963 68.684-65.395 90.848l-83.303 86.151c-19.751 20.428-34.059 48.453-40.286 78.914-.83 4.058 1.788 8.021 5.846 8.85 4.057.834 8.021-1.787 8.85-5.846 5.663-27.7 18.58-53.09 36.373-71.49l83.303-86.151c22.367-23.132 48.988-63.561 67.381-93.405 2.918-4.732 7.652-4.315 9.031-4.072 1.392.243 6.023 1.463 7.172 6.954 24.89 118.925-67.228 255.924-124.353 327.002-2.403 2.989-2.163 7.309.555 10.015 1.456 1.448 3.37 2.184 5.292 2.184 1.668 0 3.341-.554 4.724-1.677 42.067-34.142 83.67-61.031 123.65-79.922 54.678-25.834 104.342-35.531 147.615-28.822 1.947.302 3.908.642 5.829 1.011 4.275.819 5.282 4.395 5.489 5.471.205 1.066.592 4.728-3.039 7.052-25.962 16.61-61.117 40.616-81.154 60.652-2.929 2.93-2.929 7.678 0 10.607 2.929 2.928 7.678 2.928 10.606 0 19.086-19.086 53.294-42.415 78.631-58.625 7.581-4.85 11.383-13.689 9.686-22.518-1.702-8.853-8.53-15.672-17.395-17.372-2.094-.401-4.233-.771-6.355-1.101-4.823-.748-9.719-1.297-14.677-1.669 67.97-104.011 108.191-183.466 130.15-232.399 9.464-21.088-.875-41.223-15.977-50.214z"/><path d="m359.389 188.423c-2.929 2.929-2.929 7.678 0 10.607s7.678 2.929 10.607 0c2.929-2.929 2.929-7.678 0-10.606-2.929-2.93-7.678-2.93-10.607-.001z"/><path d="m279.198 165.923c-2.929 2.929-2.929 7.678 0 10.607s7.678 2.929 10.607 0c2.929-2.929 2.929-7.678 0-10.606-2.929-2.93-7.678-2.93-10.607-.001z"/><path d="m239.256 263.418c-2.929 2.929-2.929 7.678 0 10.607s7.678 2.929 10.607 0c2.929-2.929 2.929-7.678 0-10.607-2.93-2.929-7.678-2.929-10.607 0z"/><path d="m304.618 247.987c-2.929 2.929-2.929 7.678 0 10.607s7.678 2.929 10.607 0c2.929-2.929 2.929-7.677 0-10.606s-7.678-2.929-10.607-.001z"/><path d="m351.889 117.042c-2.929 2.929-2.929 7.678 0 10.607s7.678 2.929 10.607 0c2.929-2.929 2.929-7.678 0-10.607-2.929-2.928-7.678-2.929-10.607 0z"/><path d="m432.375 106.734c2.929-2.929 2.929-7.677 0-10.607-2.929-2.929-7.678-2.929-10.606 0-2.929 2.929-2.929 7.678 0 10.607s7.677 2.929 10.606 0z"/></g></g><g transform="matrix(0.078125 0 0 0.078125 242.5 67.5)" id="L1_700"><g><path d="m309.938 33.47 12.248 16.716c1.71 2.334 4.624 3.459 7.459 2.879l12.427-2.542 7.875-.611c25.454-5.206 47.872 11.603 50.692 37.43l4.25 20.601c.314 2.877 2.275 5.307 5.02 6.223l19.659 6.555c24.647 8.219 36.888 35.85 26.417 59.628l-8.352 18.965c-1.166 2.648-.684 5.734 1.236 7.899l40.474 45.653c2.894 3.264 2.354 8.31-1.165 10.889l-49.214 36.061c-2.334 1.71-3.459 4.624-2.879 7.459l12.225 59.774c.874 4.274-2.116 8.374-6.453 8.848l-60.651 6.623c-2.877.314-5.307 2.275-6.223 5.02l-19.3 57.878c-1.38 4.138-6.02 6.194-10.012 4.436l-55.836-24.59c-2.648-1.166-5.734-.684-7.899 1.236l-45.653 40.474c-3.264 2.894-8.31 2.354-10.889-1.165l-36.061-49.214c-1.71-2.334-4.624-3.459-7.459-2.879l-59.774 12.225c-4.274.874-8.374-2.116-8.847-6.453l-6.623-60.651c-.314-2.877-2.275-5.307-5.02-6.223l-57.878-19.3c-4.138-1.38-6.194-6.02-4.436-10.012l24.59-55.836c1.166-2.648.684-5.734-1.236-7.899l-40.474-45.653c-2.894-3.264-2.354-8.31 1.165-10.889l49.214-36.061c2.334-1.711 3.459-4.624 2.879-7.459l-4.152-20.303c-5.206-25.454 14.223-46.05 40.051-48.87l4.007-4.436 14.973-1.635c2.877-.314 5.307-2.275 6.223-5.02l6.555-19.659c8.219-24.647 35.85-36.889 59.628-26.417l18.965 8.352c2.648 1.166 5.734.684 7.899-1.236l15.507-13.747c19.441-17.235 49.492-14.02 64.848 6.936z" fill="#bbf49b"/><path d="m489.344 252.867-40.474-45.653c-1.92-2.165-2.402-5.251-1.236-7.899l8.352-18.965c9.49-21.549.324-46.265-19.825-56.825-.623-.327-1.26-.635-1.905-.934-.192-.089-.386-.174-.58-.261-.482-.216-.97-.423-1.464-.623-.198-.08-.395-.162-.595-.239-.674-.262-1.354-.513-2.048-.744l-19.659-6.555c-.331-.11-.65-.245-.957-.398-.136-.068-.261-.152-.392-.228-.161-.093-.324-.181-.477-.285-.172-.118-.331-.251-.491-.382-.094-.076-.193-.148-.283-.229-.186-.168-.357-.349-.524-.534-.05-.054-.102-.106-.15-.161-.183-.216-.353-.444-.51-.679-.021-.031-.043-.06-.063-.091-.168-.259-.32-.528-.454-.808-.005-.01-.01-.02-.016-.031-.28-.588-.487-1.216-.607-1.873-.032-.175-.077-.346-.096-.525l-2.25-20.6c-2.82-25.827-27.238-43.636-52.692-38.431l-6.996 1.431c13.379 4.553 18.587 12.458 18.248 32.491-.111 6.547-3.646 12.561-9.287 15.887-27.481 16.2-117.623 79.924-230.011 270.278-12.521 21.208 9.285 38.291 19.545 52.985l40.429-8.268c2.835-.58 5.749.545 7.459 2.879l32.99 45.023 39.612-35.118c2.165-1.92 5.251-2.403 7.899-1.236l9.016 3.971 3.084-2.734c2.166-1.92 5.251-2.403 7.899-1.236l37.118 16.346 18.718 8.243c3.992 1.758 8.632-.297 10.012-4.436l19.3-57.878c.915-2.745 3.346-4.706 6.223-5.02l60.651-6.623c4.336-.474 7.327-4.574 6.453-8.848l-12.225-59.774c-.58-2.835.545-5.749 2.879-7.459l49.214-36.061c3.52-2.579 4.059-7.625 1.166-10.89z" fill="#9be69d"/><path d="m71.283 139.203 4.152 20.303c.58 2.835-.545 5.749-2.879 7.459l-49.214 36.061c-3.519 2.579-4.059 7.624-1.165 10.889l40.474 45.653c1.92 2.165 2.403 5.251 1.236 7.899l-24.59 55.836c-1.758 3.992.297 8.632 4.436 10.012l57.877 19.3c2.746.915 4.707 3.346 5.021 6.223l6.623 60.65c.473 4.336 4.573 7.327 8.847 6.453l59.774-12.225c2.835-.58 5.749.545 7.459 2.879l36.061 49.214c2.579 3.518 7.624 4.059 10.889 1.164l45.653-40.474c2.166-1.92 5.251-2.403 7.899-1.236l55.836 24.59c3.992 1.758 8.632-.297 10.012-4.436l17.859-53.557c-42.704-132.958-178.667-254.501-226.438-294.106-10.434-8.651-23.918-12.713-37.392-11.243-25.827 2.821-43.636 27.239-38.43 52.692z" fill="#6fd7a3"/><path d="m355.685 445.418 17.859-53.557c-23.781-74.04-76.479-144.531-126.765-199.314-35.953 40.979-78.519 97.935-124.877 176.453-12.521 21.208 9.285 38.291 19.545 52.985l40.429-8.268c2.835-.58 5.749.545 7.459 2.879l22.858 31.195 10.132 13.828 39.612-35.118c2.165-1.92 5.251-2.403 7.899-1.236l9.016 3.971 3.085-2.734c2.165-1.92 5.251-2.403 7.899-1.236l37.118 16.346 2.418 1.065 16.3 7.178c1.693.746 3.501.799 5.129.305.118-.036.234-.076.35-.117.327-.117.645-.258.952-.419.296-.156.586-.324.859-.518.205-.146.402-.302.592-.469.95-.836 1.7-1.926 2.131-3.219z" fill="#3ec3a4"/><path d="m225.395 465.809c2.579 3.518 7.624 4.059 10.889 1.164l45.653-40.474c2.165-1.92 5.251-2.403 7.899-1.236l55.836 24.59c3.993 1.758 8.632-.297 10.013-4.436l19.3-57.878c.915-2.745 3.346-4.706 6.223-5.02l60.65-6.622c4.337-.474 7.327-4.574 6.453-8.848l-12.225-59.773c-.58-2.835.544-5.749 2.879-7.459l49.214-36.061c3.519-2.578 4.059-7.624 1.164-10.888l-40.474-45.653c-1.92-2.165-2.403-5.251-1.236-7.899l8.352-18.965c10.471-23.777 10.277-59.091-14.369-67.31-12.83-4.278-26.469-6.121-39.542-3.521-5.562 1.106-11.021 2.836-16.272 5.189-42.688 19.13-121.296 77.313-225.712 253.273-36.759 61.946 65.305 97.827 65.305 97.827z" fill="#bbf49b"/><path d="m489.344 252.868-40.474-45.653c-1.92-2.165-2.403-5.251-1.236-7.899l8.352-18.965c10.471-23.777 10.277-60.091-14.369-68.31-12.83-4.278-26.469-5.121-39.542-2.521-5.562 1.106-11.021 2.836-16.272 5.189-4.17 1.869-8.688 4.117-13.534 6.804 11.841-1.712 24.027-.651 35.559 3.195 24.647 8.219 24.84 44.533 14.369 68.31l-8.352 18.965c-1.167 2.648-.684 5.734 1.236 7.899l40.474 45.653c2.894 3.264 2.354 8.31-1.165 10.888l-49.214 36.061c-2.335 1.71-3.459 4.624-2.879 7.459l12.058 58.957 27.502-3.003c4.336-.474 7.327-4.574 6.453-8.848l-12.225-59.773c-.58-2.835.544-5.749 2.879-7.459l49.214-36.061c3.52-2.578 4.059-7.624 1.166-10.888z" fill="#9be69d"/><path d="m283.082 494.738c-9.851 1.202-19.878-.167-30.053-.167-7.897 0-15.706 1.627-23.412.898-124.621-11.788-222.117-116.721-222.117-244.426 0-39.53 9.343-76.877 25.94-109.956 6.327-12.61 22.49-16.493 34.026-8.371 136.939 96.426 198.775 297.509 215.616 362.022z" fill="#3ec3a4"/><path d="m229.616 495.469c5.861.715 11.086-.503 17.066-.204 4.071.203 8.168.307 12.29.307 135.602 0 244.528-108.927 244.528-244.528 0-42.286-10.691-82.074-29.516-116.811-4.674-8.625-14.722-11.47-22.88-6.022-2.322 1.551-4.624 3.132-6.904 4.742-136.705 96.516-197.757 298.055-214.584 362.516z" fill="#3ec3a4"/><path d="m474.984 134.233c-4.674-8.625-15.722-11.47-23.88-6.022-2.322 1.551-4.624 3.132-6.904 4.742-5.61 3.961-11.08 8.115-16.437 12.412.066.146-1.074.639-1.011.788 15.702 37.365 23.809 78.705 19.531 121.871-11.711 118.15-103.286 209.085-215.934 224.659-.252.952-.498 1.887-.733 2.786 5.861.715 11.086.497 17.066.796 4.071.203 8.168.307 12.289.307 135.602 0 245.528-109.927 245.528-245.528.001-42.286-10.69-82.074-29.515-116.811z" fill="#0bb494"/></g><path d="m481.578 130.662c-3.253-6.001-8.91-10.382-15.521-12.019-1.519-.376-3.061-.593-4.604-.668-4.386-6.201-10.345-10.674-17.464-13.048-10.555-3.519-21.525-4.897-32.343-4.201l-1.55-14.193c-1.573-14.403-9.189-27.561-20.896-36.099-11.706-8.538-26.561-11.769-40.755-8.865l-20.244 4.141-12.213-16.668c-10.86-14.822-28.291-22.621-46.599-20.875-4.123.394-7.146 4.056-6.752 8.18.394 4.123 4.032 7.146 8.18 6.752 12.995-1.24 25.367 4.293 33.071 14.809l12.249 16.718c3.433 4.682 9.323 6.955 15.011 5.792l20.303-4.152c10.215-2.089 20.483.143 28.91 6.289s13.69 15.24 14.822 25.608l1.623 14.86c-4.793 1.192-9.503 2.797-14.071 4.845-27.123 12.155-66.477 38.602-116.094 95.603-45.272-51.7-90.977-91.777-114.749-111.486-3.126-2.591-6.514-4.817-10.08-6.676.77-1.124 1.396-2.36 1.839-3.689l6.556-19.659c3.299-9.895 10.367-17.669 19.902-21.894 9.535-4.226 20.044-4.236 29.587-.032l18.966 8.353c5.314 2.339 11.554 1.362 15.898-2.488l10.327-9.155c3.1-2.748 3.385-7.488.637-10.588s-7.488-3.384-10.588-.637l-10.282 9.116-18.911-8.329c-13.259-5.839-28.462-5.821-41.709.046-13.246 5.869-23.473 17.118-28.057 30.863l-6.536 19.602-20.532 2.242c-.001 0-.002 0-.003.001-.002 0-.004 0-.006 0-23.678 2.583-41.91 20.902-45.4 43.382-5.439-1.766-11.318-2.009-16.987-.585-8.588 2.157-15.782 7.913-19.738 15.791-17.766 35.381-26.775 73.533-26.775 113.398 0 42.83 10.899 85.153 31.52 122.393 2.006 3.624 6.569 4.936 10.194 2.929 3.624-2.007 4.934-6.571 2.929-10.194-19.393-35.023-29.643-74.834-29.643-115.128 0-37.507 8.472-73.395 25.18-106.666 2.025-4.034 5.573-6.866 9.987-7.976 4.451-1.115 9.158-.244 12.912 2.399.921.648 1.851 1.313 2.786 1.986.241.199.494.382.758.55 37.657 27.3 86.009 75.149 131.558 157.918.256.689.612 1.342 1.067 1.937 16.881 30.908 33.358 66.646 48.747 107.932-11.618 31.718-19.716 59.04-24.839 78.087-63.91-8.028-122.342-42.058-161.107-94.071-2.477-3.321-7.178-4.009-10.495-1.532-3.321 2.476-4.008 7.175-1.532 10.495 42.581 57.133 107.497 93.857 178.102 100.758 10.269 1.003 20.542 1.21 30.848 1.21 60.308 0 118.718-21.57 164.468-60.737 45.25-38.737 75.493-92.259 85.158-150.707.676-4.087-2.089-7.947-6.176-8.623-4.086-.67-7.946 2.091-8.623 6.176-9.091 54.97-37.542 105.314-80.114 141.76-48.202 41.266-111.363 61.73-175.254 56.247 5.196-19.033 13.197-45.61 24.48-76.171.083-.199.159-.401.226-.607 9.763-26.388 21.964-55.714 36.925-85.717 43.452-87.139 95.67-151.481 155.203-191.24.001-.001.002-.001.003-.002 1.045-.697 2.203-1.161 3.442-1.377.036-.006.07-.018.106-.025 1.188-.193 2.417-.148 3.636.153 2.564.635 4.673 2.271 5.939 4.605 18.715 34.539 28.609 73.696 28.609 113.238 0 2.519-.04 5.073-.118 7.593-.129 4.14 3.122 7.601 7.263 7.73 4.105.139 7.602-3.122 7.729-7.263.084-2.674.126-5.386.126-8.06 0-42.03-10.52-83.658-30.422-120.385zm-403.673.353c-.37-18.694 13.665-34.974 32.622-37.044 11.379-1.245 22.964 2.242 31.791 9.56 23.678 19.631 69.435 59.758 114.491 111.478-16.004 19.179-33.009 41.485-50.952 67.408-32.203-56.453-74.22-111.742-127.952-151.402zm208.734 187.986c-11.874 23.811-22.031 47.194-30.643 69.072-11.288-28.689-25.182-59.829-42.009-91.002 20.664-30.269 40.01-55.609 57.965-76.814.304-.302.576-.624.818-.963 50.188-59.063 89.441-85.791 116.1-97.739 15.837-7.097 33.729-7.949 50.373-2.396 2.465.821 4.623 2.028 6.505 3.632-61.235 41.282-114.764 107.279-159.109 196.21z"/></g><g transform="matrix(0.13872072100639343 0 0 0.13872072100639343 315 140)" id="L1_701"><g><path d="m327.401 290.488c0 37.024-30.014 67.039-67.039 67.039s-67.039-30.014-67.039-67.039c0-31.958 22.362-58.694 52.293-65.412 4.745-1.065 9.68-.627 14.746-.627 2.493 0 4.954.136 7.376.401 6.508.712 12.735 2.356 18.547 4.795 9.336 3.918 17.598 9.889 24.221 17.347 10.511 11.837 16.895 26.421 16.895 43.496z" fill="#ffaa5f"/><path d="m310.506 245.992c-6.623-7.459-14.885-13.429-24.221-17.347-5.811-2.439-12.039-4.082-18.547-4.795-2.422-.265-4.883-.401-7.376-.401-5.067 0-9.996.581-14.741 1.646 3.838.865 7.553 2.057 11.11 3.55 9.336 3.918 17.598 9.888 24.221 17.347 10.511 11.836 16.895 27.421 16.895 44.496 0 31.945-22.35 58.652-52.262 65.384 4.757 1.071 9.697 1.654 14.777 1.654 37.025 0 67.039-30.014 67.039-67.039 0-17.074-6.384-32.659-16.895-44.495z" fill="#ff8c5a"/><path d="m389.584 225.173c-.569.09-7.761 1.123-10.999 2.615-9.485 4.372-19.869 6.024-30.243 4.813-4.091-.478-8.29-.386-12.529.288-26.649 4.241-44.723 29.858-38.586 68.421s40.663 65.121 67.312 60.88c4.31-.686 8.15-2.136 11.533-4.248 4.479-2.796 9.937-3.665 15.063-2.397 3.871.958 7.971 1.144 12.281.458 21.334-3.395 41.339-27.121 45.322-56.235.992-7.254.99-14.842-.234-22.533-2.301-14.461-8.274-25.135-14.996-33.854-11.204-14.532-27.268-20.858-43.924-18.208z" fill="#ed5469"/><path d="m448.504 277.235c-2.301-14.461-7.274-26.134-13.996-34.854-11.204-14.532-27.267-20.859-43.923-18.208-.569.091-1.134.191-1.695.301-.31.061-.611.141-.918.208 10.214 2.302 19.553 8.255 26.834 17.699 6.722 8.72 11.695 20.393 13.996 34.854 1.224 7.692 1.226 15.28.234 22.533-3.718 27.179-21.4 49.656-41.091 55.287 1.07.082 2.138.229 3.191.49 3.871.958 7.971 1.144 12.281.458 21.334-3.395 41.339-27.121 45.322-56.235.991-7.253.989-14.841-.235-22.533z" fill="#e63850"/><g fill="#bbf49b"><path d="m161.156 166.96c2.82-.916 5.785.895 6.257 3.822 1.275 7.911 2.357 23.264-5.19 35.619-10.659 17.45-34.495 22.313-34.495 22.313s-6.553-23.428 4.106-40.877c7.548-12.354 21.702-18.4 29.322-20.877z"/><path d="m313.572 174.691c2.965-.004 5.229 2.632 4.777 5.562-1.221 7.919-4.915 22.86-15.898 32.294-15.511 13.323-39.687 10.617-39.687 10.617s.973-24.308 16.484-37.631c10.984-9.433 26.311-10.83 34.324-10.842z"/><path d="m409.259 174.098c2.912-.556 5.628 1.613 5.729 4.576.274 8.008-.575 23.376-9.611 34.688-12.761 15.977-37.018 17.817-37.018 17.817s-3.567-24.064 9.194-40.041c9.036-11.313 23.836-15.538 31.706-17.04z"/></g><path d="m143.561 222.652c-6.431.94-12.34 3.227-17.474 6.724-4.332 2.951-9.742 3.741-14.738 2.153-5.92-1.882-12.236-2.383-18.667-1.443-24.755 3.617-41.813 27.151-36.579 62.974 6.153 42.11 38.874 58.748 61.045 65.237 13.597 3.98 28.272 2.023 40.303-5.458 19.424-12.077 45.538-36.777 39.177-80.313-.095-.65-.779-4.598-1.056-5.881-3.017-14.009-8.023-24.112-15.797-31.591-9.381-9.025-22.345-14.012-34.829-12.584-.461.054-.922.114-1.385.182z" fill="#9be69d"/><path d="m196.629 272.526c-.095-.65-1.779-4.598-2.056-5.881-3.017-14.01-8.023-24.112-15.797-31.591-9.381-9.025-22.345-13.012-34.829-11.584-.461.053.077.113-.385.18-1.417.207-2.803-.509-4.166-.173 7.627 1.918 14.845 5.965 20.678 11.577 7.774 7.479 12.78 17.581 15.797 31.591.276 1.283.961 5.23 1.056 5.881 6.361 43.535-19.753 68.236-39.177 80.313-5.082 3.16-10.638 5.322-16.383 6.48 12.366 2.482 25.289.234 36.086-6.48 19.423-12.077 45.537-36.777 39.176-80.313z" fill="#6fd7a3"/><path d="m389.217 497.111h-274.808c-19.422 0-36.183-13.62-40.156-32.631l-11.879-56.832-5.849-27.981-.804-8.558-3.308-11.112h398.798l-21.839 104.483c-3.972 19.012-20.733 32.631-40.155 32.631z" fill="#b67f5f"/><path d="m446.79 359.997h-388.968c-16.632 0-30.115-13.483-30.115-30.115 0-16.632 13.483-30.115 30.115-30.115h388.968c16.632 0 30.115 13.483 30.115 30.115h-.985c-.001 16.633-12.498 30.115-29.13 30.115z" fill="#b67f5f"/><path d="m452.197 359.997h-29.554-370.229l4.111 19.67c.43.018.861.033 1.296.033h340.583c10.375 0 18.126 9.539 16.004 19.694l-13.604 65.086c-3.974 19.011-20.734 32.631-40.156 32.631h29.554c19.422 0 36.183-13.62 40.156-32.631l17.728-84.813z" fill="#a06e50"/><path d="m446.79 299.768h-29.554c16.632 0 30.115 13.483 30.115 30.115 0 16.632-13.483 30.115-30.115 30.115h29.554c16.632 0 30.115-13.482 30.115-30.115-.001-16.632-13.483-30.115-30.115-30.115z" fill="#a06e50"/></g><g><path d="m337.465 489.611h-219.825c-17.657 0-33.095-12.544-36.706-29.827l-7.571-36.225c-.849-4.054-4.829-6.649-8.876-5.808-4.055.848-6.654 4.821-5.808 8.876l7.571 36.225c5.058 24.196 26.67 41.759 51.39 41.759h219.825c4.143 0 7.5-3.357 7.5-7.5 0-4.142-3.357-7.5-7.5-7.5z"/><path d="m446.79 307.269c12.47 0 22.614 10.145 22.614 22.614 0 12.47-10.145 22.614-22.614 22.614h-143.953c-4.143 0-7.5 3.357-7.5 7.5s3.357 7.5 7.5 7.5h140.13l-19.289 92.286c-3.613 17.284-19.051 29.828-36.707 29.828h-17.305c-4.142 0-7.5 3.357-7.5 7.5s3.358 7.5 7.5 7.5h17.305c24.719 0 46.331-17.562 51.39-41.759l20.337-97.299c14.92-4.994 25.706-19.092 25.706-35.671 0-16.208-10.305-30.054-24.707-35.332v-87.159c0-114.356-93.035-207.391-207.391-207.391s-207.392 93.035-207.392 207.392v87.159c-14.402 5.278-24.707 19.124-24.707 35.332 0 16.579 10.786 30.677 25.706 35.671l6.115 29.26c.739 3.537 3.858 5.968 7.334 5.968.509 0 1.025-.053 1.542-.16 4.055-.848 6.654-4.821 5.808-8.876l-5.068-24.248h208.506c4.143 0 7.5-3.357 7.5-7.5s-3.357-7.5-7.5-7.5h-212.329c-12.47 0-22.614-10.145-22.614-22.614 0-12.47 10.145-22.614 22.614-22.614h388.969zm-143.031-15c-1.895-27.884 10.97-48.429 33.232-51.972 3.532-.562 7.058-.644 10.481-.246 11.703 1.368 23.55-.52 34.251-5.451 3.128-1.441 6.506-2.457 10.039-3.02 24.434-3.895 44.258 14.933 49.334 46.834.726 4.557.974 9.196.768 13.854h-138.105zm-240.206 0c-.01-.098-.014-.195-.028-.293-2.232-15.277-.158-28.601 5.996-38.527 5.53-8.919 13.914-14.432 24.245-15.941 5.288-.771 10.439-.38 15.311 1.17 7.224 2.299 14.963 1.166 21.233-3.103.406-.276.82-.533 1.233-.79.033-.02.065-.042.098-.063 3.982-2.455 8.318-4.019 12.918-4.636.012-.002.025-.002.037-.004.043-.004.087-.01.131-.014 9.218-1.193 18.487 1.392 26.115 7.291 9.398 7.268 15.728 19.124 17.987 33.565.02.505.091 1.002.21 1.486.046.342.103.677.145 1.021.849 6.992 1.027 13.206.553 18.839h-126.184zm74.681-100.521c5.414-8.863 15.279-13.954 22.208-16.587.819 7.366.794 18.468-4.62 27.331-3.048 4.99-7.869 9.319-14.298 12.896-2.768.433-5.466 1.099-8.085 1.996-.619-7.234-.247-17.382 4.795-25.636zm65.84 79.875c-.016-.133-.04-.263-.056-.396 8.232-24.16 30.657-40.278 56.344-40.278 14.863 0 29.141 5.587 40.052 15.507-.789 1.09-1.556 2.203-2.274 3.365-7.187 11.64-10.381 26.187-9.415 42.447h-83.954c.437-6.315.215-13.133-.697-20.645zm195.443-62.941c-2.439 3.054-5.674 5.745-9.611 8.019-.168.025-.333.039-.501.066-4.878.777-9.565 2.189-13.931 4.197.277-7.31 1.882-17.561 7.939-25.146 6.48-8.113 16.907-11.929 24.11-13.673-.109 7.412-1.524 18.421-8.006 26.537zm-147.211-193.682c106.085 0 192.392 86.307 192.392 192.392v36.823c-8.157-13.492-19.761-22.735-33.301-26.387 10.359-13.138 11.399-30.312 11.087-39.411-.123-3.605-1.809-6.962-4.625-9.211-2.815-2.249-6.466-3.146-10.005-2.476-8.992 1.717-25.647 6.563-36.161 19.727-3.674 4.601-6.19 9.71-7.897 14.801-1.427-2.782-4.509-4.484-7.764-4.003-4.099.605-6.931 4.416-6.326 8.514l2.899 19.66c-1.132-.053-2.263-.145-3.393-.276-4.787-.559-9.69-.447-14.577.33-8.892 1.416-16.974 4.924-23.798 10.191-4.441-4.088-9.341-7.583-14.568-10.459 3.851-1.755 7.626-4.019 11.07-6.978 12.781-10.979 17.029-27.794 18.425-36.842.548-3.565-.483-7.177-2.832-9.91-2.345-2.73-5.752-4.294-9.352-4.294-.006 0-.012 0-.017 0h-.001c-9.153.014-26.418 1.675-39.2 12.653-6.91 5.935-11.318 13.581-14.137 20.781l-.531-4.789c-.457-4.116-4.153-7.087-8.281-6.627-4.116.456-7.084 4.164-6.627 8.281l2.181 19.663c-20.158 3.622-37.73 15.297-48.839 32.201-4.23-9.702-10.363-17.871-18.109-23.862-5.02-3.882-10.563-6.735-16.378-8.522 1.89-2.1 3.554-4.32 4.982-6.657 8.784-14.379 7.651-31.687 6.194-40.723-.573-3.561-2.667-6.68-5.742-8.559s-6.804-2.317-10.237-1.203c-8.705 2.829-24.62 9.722-33.404 24.102-2.402 3.932-4.058 8.074-5.176 12.204l-.265-1.151c-.929-4.037-4.953-6.561-8.99-5.627-4.037.929-6.557 4.954-5.627 8.99l5.832 25.345c-6.326-1.655-12.911-2.005-19.609-1.024-12.807 1.871-23.878 8.327-31.685 18.363v-33.637c0-106.086 86.307-192.393 192.392-192.393zm19.035 200.798c1.477-7.188 4.912-17.805 12.794-24.575 7.879-6.767 18.832-8.575 26.234-8.948-1.486 7.262-4.927 17.816-12.805 24.583-7.883 6.771-18.898 8.565-26.223 8.94z"/></g></g><g transform="matrix(0.13205294606790627 -0.03538348025704608 0.03538348025704608 0.13205294606790627 132.14411518604453 150.32479457472562)" id="L1_702"><g><path d="m10.46 413.594c-6.272 10.864-2.18 24.736 8.949 30.524 70.807 36.829 151.274 57.648 236.604 57.648s165.797-20.819 236.604-57.648c11.129-5.789 10.221-19.66 3.949-30.524l-224.885-387.913c-15.127-26.2-32.908-7.535-34.701-4.429z" fill="#bbf49b"/><path d="m501.567 413.594-32.679-56.58-3.337-1.125-192.502-334.637c-7.325-12.687-22.157-14.38-32.035-5.098 1.531 1.438 2.9 3.132 4.035 5.098l226.519 392.342c6.272 10.864 2.18 24.736-8.949 30.524-66.643 34.664-141.845 55.138-221.604 57.427 4.983.143 9.982.221 15 .221 85.33 0 165.797-20.819 236.604-57.648 11.128-5.789 15.221-19.66 8.948-30.524z" fill="#9be69d"/><path d="m42.476 358.142c65.025 29.777 137.341 46.381 213.538 46.381s144.513-16.604 209.538-46.381l-194.503-336.89c-8.46-14.653-25.61-14.653-34.07 0z" fill="#ed5469"/><path d="m275.047 21.248c-.248-.429-.508-.843-.777-1.246-.088-.132-.181-.258-.271-.387-.187-.268-.375-.534-.571-.79-.111-.146-.226-.286-.339-.427-.185-.23-.372-.458-.564-.678-.123-.141-.248-.28-.374-.418-.193-.211-.389-.416-.589-.617-.13-.131-.259-.262-.392-.389-.21-.201-.425-.395-.642-.586-.127-.113-.253-.228-.382-.337-.254-.214-.515-.418-.777-.619-.097-.074-.191-.154-.289-.226-.357-.264-.72-.515-1.09-.755-.122-.079-.247-.15-.37-.226-.254-.157-.508-.313-.767-.459-.165-.093-.334-.179-.501-.268-.221-.117-.443-.233-.667-.342-.184-.089-.369-.174-.555-.258-.212-.096-.426-.188-.641-.277-.196-.081-.393-.16-.591-.235-.207-.078-.416-.152-.624-.224s-.415-.144-.624-.209c-.198-.062-.398-.116-.598-.172-.222-.062-.443-.128-.666-.183-.154-.038-.31-.068-.464-.103-.535-.12-1.074-.222-1.616-.302-.116-.017-.231-.039-.347-.054-.281-.037-.563-.064-.845-.09-.141-.013-.281-.029-.422-.039-.283-.021-.566-.034-.849-.044-.137-.005-.275-.01-.412-.013-.291-.005-.581-.005-.872.001-.123.003-.246.007-.368.011-.307.012-.613.027-.92.051-.087.007-.174.016-.262.024-1.911.173-3.803.589-5.62 1.253-.032.012-.065.023-.097.035-.346.128-.689.267-1.029.413-.043.018-.085.037-.128.055-.342.15-.681.308-1.017.475-.025.012-.049.025-.074.038-1.803.911-3.5 2.084-5.03 3.522 1.531 1.438 2.9 3.132 4.035 5.098l199.774 346.041c8.125-3.228 16.151-6.654 24.066-10.278l-14.836-25.717-179.004-310.045c-.001-.002-.002-.003-.002-.004z" fill="#e63850"/></g><g><path d="m130.327 286.56c0 4.142 3.358 7.5 7.5 7.5s7.5-3.358 7.5-7.5c0-4.142-3.358-7.5-7.5-7.5-4.142.001-7.5 3.358-7.5 7.5z"/><path d="m248.514 286.56c0 4.142 3.358 7.5 7.5 7.5s7.5-3.358 7.5-7.5c0-4.142-3.358-7.5-7.5-7.5-4.142.001-7.5 3.358-7.5 7.5z"/><path d="m366.701 286.56c0 4.142 3.358 7.5 7.5 7.5s7.5-3.358 7.5-7.5c0-4.142-3.358-7.5-7.5-7.5-4.142.001-7.5 3.358-7.5 7.5z"/><path d="m189.42 193.663c0 4.142 3.358 7.5 7.5 7.5s7.5-3.358 7.5-7.5c0-4.142-3.358-7.5-7.5-7.5s-7.5 3.358-7.5 7.5z"/><path d="m307.607 193.663c0 4.142 3.358 7.5 7.5 7.5s7.5-3.358 7.5-7.5c0-4.142-3.358-7.5-7.5-7.5s-7.5 3.358-7.5 7.5z"/><path d="m356.526 484.283c-32.866 6.624-66.683 9.983-100.512 9.983-41.253 0-82.281-4.977-121.947-14.794-38.521-9.533-75.933-23.666-111.196-42.008-3.567-1.855-6.15-4.997-7.273-8.846-1.114-3.822-.632-7.826 1.358-11.274 2.071-3.587.842-8.174-2.745-10.245-3.586-2.073-8.175-.843-10.245 2.745-4.057 7.026-5.04 15.185-2.768 22.974 2.279 7.815 7.518 14.192 14.751 17.954 36.315 18.889 74.844 33.444 114.516 43.261 40.843 10.108 83.084 15.233 125.55 15.233 34.822 0 69.636-3.458 103.475-10.279 4.061-.818 6.69-4.773 5.871-8.834-.82-4.06-4.782-6.692-8.835-5.87z"/><path d="m508.063 409.844-119.53-207.033c-2.07-3.588-6.66-4.817-10.245-2.745-3.587 2.071-4.816 6.658-2.745 10.245l83.357 144.378c-64.049 28.09-132.26 42.333-202.885 42.333s-138.838-14.242-202.886-42.332l190.346-329.688c2.617-4.534 7.305-7.24 12.54-7.24 5.234 0 9.922 2.707 12.539 7.24l90.645 157.002c2.07 3.587 6.659 4.817 10.245 2.745 3.587-2.071 4.816-6.658 2.745-10.245l-90.645-157.002c-5.328-9.229-14.872-14.74-25.529-14.74-10.658 0-20.202 5.511-25.53 14.74l-210.182 364.044c-2.071 3.587-.842 8.174 2.745 10.245 1.182.682 2.471 1.006 3.743 1.006 2.592 0 5.113-1.345 6.502-3.751l12.288-21.283c66.398 29.372 137.158 44.26 210.433 44.26s144.035-14.888 210.433-44.26l28.626 49.582c1.99 3.448 2.473 7.452 1.358 11.274-1.123 3.849-3.706 6.991-7.273 8.846-32.442 16.874-66.772 30.214-102.034 39.649-4.002 1.071-6.377 5.182-5.307 9.184.897 3.353 3.928 5.564 7.24 5.564.642 0 1.294-.083 1.943-.257 36.316-9.717 71.67-23.455 105.079-40.832 7.233-3.762 12.472-10.139 14.751-17.954 2.273-7.79 1.289-15.949-2.767-22.975z"/></g></g><g transform="matrix(0.0976598709821701 0 0 0.0976598709821701 62.5 237.5)" id="L1_703"><g><path d="m393.347 39.258.587.303c7.479 3.855 8.402 21.009 2.41 44.769-3.945 15.644-29.184 79.252-29.184 79.252l29.098 16.185s27.705-66.899 32.762-86.949c13.599-53.921-2.479-74.521-19.185-83.131l-.587-.302c-8.382-4.32-18.774-.997-23.093 7.385-4.224 8.196-1.004 18.265 7.192 22.488z" fill="#b67f5f"/><path d="m421.444 69.756c24.624 12.235 34.138 40.163 26.922 66.694-24.88 91.48-94.958 289.145-269.554 358.795-35.592 14.198-75.953 6.556-100.02-22.513-1.636-1.976-3.197-4.037-4.676-6.182-28.482-41.3-16.632-98.096 26.078-124.416 75.149-46.31 186.458-139.427 244.91-248.021 14.74-27.382 48.49-38.194 76.34-24.357z" fill="#aa91dc"/><path d="m421.444 69.756c-.073-.036-.147-.067-.219-.102 9.35 13.59 12.718 30.971 8.142 47.797-24.88 91.48-97.958 292.145-272.553 361.795-26.227 10.462-55.04 7.432-78.018-6.515 24.067 29.069 64.426 39.713 100.018 25.515 174.596-69.65 247.674-270.315 272.553-361.795 7.215-26.532-5.299-54.46-29.923-66.695z" fill="#9678cd"/><path d="m421.444 69.756c-27.85-13.838-61.6-3.026-76.34 24.358l18.13 1.643c3.058.277 5.219 3.119 4.668 6.14l-3.9 21.384c-.766 4.202 3.56 7.498 7.408 5.643l20.849-10.048c2.848-1.373 6.254.079 7.235 3.085l8.801 26.969c1.338 4.1 6.787 4.905 9.253 1.366l3.839-5.51 8.622-14.376c2.029-2.912 6.309-2.997 8.452-.167l9.288 12.59c.925-3.237 1.799-6.372 2.617-9.382 7.216-26.532-4.298-51.46-28.922-63.695z" fill="#bbf49b"/><path d="m429.367 117.451c-2.25 8.274-4.901 17.452-7.98 27.335l8.622-12.376c2.029-2.912 6.309-2.997 8.451-.167l10.289 13.59c.925-3.237 1.799-6.372 2.617-9.382 7.216-26.532-5.299-54.46-29.922-66.694-.073-.036-.147-.067-.219-.102 9.35 13.589 12.718 30.97 8.142 47.796z" fill="#9be69d"/></g><g><path d="m417.71 234.479c-3.806-1.645-8.217.107-9.86 3.91-38.372 88.805-88.372 157.707-148.611 204.793-3.264 2.551-3.841 7.265-1.29 10.528 1.479 1.892 3.686 2.881 5.915 2.881 1.615 0 3.242-.52 4.613-1.591 62.239-48.649 113.763-119.526 153.143-210.662 1.642-3.802-.108-8.217-3.91-9.859z"/><path d="m440.406 73.942c4.809-35.298-4.297-59.145-27.116-70.906l-.58-.299c-5.834-3.007-12.508-3.558-18.791-1.548s-11.399 6.329-14.405 12.164c-2.961 5.744-3.507 12.299-1.539 18.454 1.969 6.155 6.217 11.176 11.96 14.135l.566.291c.543.378 2.102 3.094 2.271 10.041-22.084 1.021-42.958 13.333-54.246 34.303-23.95 44.495-58.438 89.41-102.506 133.497-2.929 2.929-2.928 7.678.002 10.606 1.464 1.464 3.383 2.195 5.302 2.195 1.92 0 3.84-.732 5.304-2.198 43.67-43.687 78.209-88.286 102.727-132.632l10.747.974-3.452 18.934c-.864 4.734.977 9.487 4.805 12.404 3.829 2.916 8.901 3.431 13.237 1.341l18.504-8.918 7.994 24.494c1.507 4.62 5.43 7.931 10.237 8.641.634.094 1.266.14 1.892.14 4.124 0 7.995-1.99 10.408-5.453l10.67-15.316 6.121 8.086c-5.995 20.619-12.886 41.179-20.574 61.285-1.48 3.869.458 8.204 4.327 9.684 3.87 1.484 8.205-.457 9.684-4.326 9.465-24.752 17.767-50.18 24.674-75.577 6.424-23.618-1.111-48.351-18.223-64.496zm-47.558-53.717c1.171-2.273 3.174-3.959 5.641-4.748 2.465-.787 5.076-.577 7.356.598l.58.299c15.169 7.818 21.748 23.423 19.976 47.522-.529-.281-1.054-.568-1.593-.836-5.531-2.748-11.255-4.627-17.023-5.721-.015-12.654-3.488-20.868-10.387-24.423l-.589-.305c-2.183-1.125-3.798-3.033-4.546-5.372-.748-2.341-.541-4.831.585-7.014zm41.222 102.468c-4.059.08-7.868 2.117-10.189 5.448l-9.849 14.136-7.383-22.624c-1.139-3.489-3.729-6.316-7.105-7.756s-7.208-1.353-10.516.242l-16.819 8.105 3.097-16.983c.639-3.507-.231-7.146-2.388-9.982-2.157-2.838-5.431-4.65-8.981-4.973l-5.284-.479c14.719-16.438 38.839-21.59 59.479-11.335 19.605 9.741 30.423 31.127 27.198 52.385l-.865-1.143c-2.449-3.237-6.316-5.124-10.395-5.041z"/><path d="m234.342 460.989c-18.54 12.08-38.149 22.277-58.282 30.31-16.809 6.704-35.609 7.508-52.937 2.26-17.326-5.247-32.528-16.344-42.806-31.247-12.621-18.301-17.051-40.361-12.474-62.115 4.564-21.695 17.46-40.041 36.312-51.658 38.852-23.942 80.997-56.262 118.671-91.004 3.045-2.809 3.237-7.553.429-10.599-2.809-3.044-7.554-3.236-10.598-.429-36.986 34.109-78.314 65.81-116.371 89.262-22.387 13.796-37.701 35.58-43.121 61.339-5.433 25.819-.175 52 14.804 73.72 12.199 17.689 30.242 30.86 50.807 37.088 8.968 2.716 18.268 4.066 27.56 4.066 12.021 0 24.028-2.261 35.283-6.751 21.051-8.397 41.545-19.054 60.913-31.673 3.471-2.262 4.451-6.908 2.189-10.379-2.262-3.47-6.91-4.45-10.379-2.19z"/></g></g><g transform="matrix(0.17563511431217194 0 0 0.17563511431217194 217.5 217.5)" id="L1_704"><g><path d="m309.042 97.509c0 48.316-52.829 133.829-52.829 133.829s-57.671-88.041-57.671-136.357c0-40.365 18.022-74.346 42.526-84.436 4.826-1.987 8.894-.862 14.135-.862 31.851.001 53.839 39.511 53.839 87.826z" fill="#bbf49b"/><path d="m120.342 200.891c35.413 27.301 135.871 30.447 135.871 30.447s-28.603-93.323-64.016-120.624c-23.394-18.035-50.881-27.738-72.565-22.771-11.141 2.552-20.749 8.176-27.484 16.912-19.842 25.738-7.219 68.735 28.194 96.036z" fill="#bbf49b"/><path d="m256.213 7.498c-5.241 0-10.316 1.067-15.142 3.054 24.504 10.089 42.528 44.064 42.528 84.43 0 32.093-27.386 136.357-27.386 136.357s57.67-88.041 57.67-136.357-25.82-87.484-57.67-87.484z" fill="#9be69d"/><path d="m389.465 198.121c-35.413 27.301-133.252 33.217-133.252 33.217s28.602-96.351 64.016-123.652c13.28-10.238 27.879-16.815 41.987-19.68 23.513-4.775 43.45 1.829 55.851 17.915 19.842 25.739 6.811 64.899-28.602 92.2z" fill="#bbf49b"/><path d="m420.277 104.855c-12.35-16.02-34.367-21.572-57.77-16.902 11.139 2.552 20.752 8.167 27.486 16.902 19.842 25.738 7.219 68.735-28.194 96.036-22.756 17.543-72.366 25.112-104.924 28.281-.434 1.397-.662 2.166-.662 2.166s100.457-3.146 135.871-30.447c35.413-27.301 48.036-70.298 28.193-96.036z" fill="#9be69d"/><path d="m161.913 107.686c32.277 24.883 94.3 123.652 94.3 123.652s-28.603-96.351-64.016-123.652c-23.395-18.036-50.879-24.701-72.563-19.733 14.199 2.833 28.907 9.424 42.279 19.733z" fill="#9be69d"/><path d="m406.687 351.038c0 64.127-76.987 117.496-121.264 143.501-13.52 7.94-29.482 11.945-44.222 7.974-4.914-1.323-9.691-3.309-14.198-5.955-44.277-26.005-123.283-81.393-123.283-145.52 0-83.523 60.006-123.422 136.901-128.083 5.126-.311 10.328 1.554 15.592 1.554 84.219 0 150.474 37.437 150.474 126.529z" fill="#ed5469"/><path d="m256.213 222.49c-5.111 0-10.161.148-15.142.441 77.11 4.533 137.35 44.421 137.35 128.106 0 64.127-79.006 119.515-123.283 145.52-4.466 2.624-9.2 4.595-14.068 5.918 14.777 4.017 30.793 2.046 44.352-5.918 44.277-26.005 123.283-81.393 123.283-145.52.001-89.091-68.273-128.547-152.492-128.547z" fill="#e63850"/></g><g><path d="m281.436 490.511c-15.702 9.222-35.21 9.222-50.913 0-21.296-12.507-51.92-32.62-76.877-57.408-28.461-28.266-42.892-55.81-42.892-81.867 0-17.956 2.929-34.333 8.705-48.675 1.547-3.842-.313-8.211-4.155-9.759-3.843-1.546-8.211.312-9.759 4.155-6.497 16.132-9.79 34.394-9.79 54.278 0 67.446 79.678 124.314 127.172 152.21 10.194 5.987 21.624 8.98 33.053 8.98 11.43 0 22.859-2.994 33.053-8.981 3.572-2.098 4.767-6.693 2.668-10.265-2.098-3.571-6.694-4.767-10.265-2.668z"/><path d="m434.098 154.401c6.019-20.503 3.22-39.725-7.88-54.124-11.101-14.399-28.969-22.003-50.337-21.392-18.394.52-37.526 7.148-54.549 18.761.034-.904.053-1.793.053-2.664 0-21.484-4.736-41.718-13.695-58.516-1.95-3.655-6.494-5.036-10.147-3.088-3.655 1.95-5.037 6.493-3.088 10.147 7.694 14.423 11.931 32.698 11.931 51.456 0 5.175-.778 11.237-2.294 18.021-21.024 24.639-38.293 67.333-47.876 94.456-9.582-27.122-26.851-69.816-47.876-94.456-1.517-6.786-2.295-12.847-2.295-18.021 0-21.917 5.559-42.42 15.653-57.732 9.456-14.347 21.715-22.249 34.515-22.249 6.327 0 12.517 1.914 18.398 5.688 3.486 2.235 8.125 1.224 10.363-2.262 2.237-3.486 1.224-8.126-2.262-10.363-8.338-5.35-17.254-8.063-26.499-8.063-18.009 0-34.715 10.297-47.041 28.996-11.691 17.734-18.13 41.169-18.13 65.988 0 .871.019 1.759.053 2.663-17.023-11.614-36.155-18.241-54.549-18.761-21.369-.616-39.237 6.993-50.337 21.392-11.101 14.399-13.899 33.621-7.88 54.124 5.768 19.647 19.063 38.268 37.435 52.432 12.267 9.457 32.247 17.037 59.576 22.638-21.269 8.751-38.945 21.323-52.049 37.365-2.62 3.208-2.144 7.933 1.064 10.553 3.209 2.621 7.934 2.145 10.553-1.064 24.405-29.879 67.403-46.334 121.073-46.334 42.421 0 78.194 10.159 103.451 29.38 27.719 21.094 41.774 52.002 41.774 91.864 0 26.938-16.019 69.957-92.331 121.925-3.423 2.332-4.309 6.997-1.977 10.421 1.452 2.131 3.808 3.279 6.206 3.279 1.454 0 2.923-.421 4.215-1.301 45.112-30.721 98.888-78.963 98.888-134.324 0-44.164-16.491-80.058-47.69-103.8-9.352-7.117-19.949-13.103-31.621-17.924 27.427-5.605 47.471-13.198 59.769-22.679 18.37-14.164 31.665-32.785 37.433-52.432zm-309.177 40.552c-15.883-12.244-27.318-28.146-32.201-44.777-4.631-15.775-2.725-30.243 5.368-40.74 17.285-22.42 57.447-20.542 89.53 4.192 2.726 2.101 5.419 4.678 8.067 7.625.13.156.262.308.404.453 20.711 23.381 38.577 69.53 46.974 93.609-12.304.597-24.048 2.053-35.146 4.336-40.164-5.263-68.853-13.794-82.996-24.698zm179.445 24.716c-11.058-2.279-22.76-3.733-35.012-4.344 4.372-12.562 11.032-30.321 19.232-47.856 12.398-26.514 24.923-45.132 36.221-53.841 32.083-24.733 72.246-26.612 89.53-4.192 8.092 10.497 9.999 24.965 5.368 40.74-4.882 16.63-16.318 32.533-32.201 44.777-14.162 10.919-42.899 19.456-83.138 24.716z"/></g></g></defs><g fi:class="KUsePattern"><pattern id="pattern_L1_695" width="350" height="350" patternUnits="userSpaceOnUse"><use xlink:href="#L1_695" x="-350" y="-350"/><use xlink:href="#L1_695" x="0" y="-350"/><use xlink:href="#L1_695" x="350" y="-350"/><use xlink:href="#L1_695" x="-350" y="0"/><use xlink:href="#L1_695" x="0" y="0"/><use xlink:href="#L1_695" x="350" y="0"/><use xlink:href="#L1_695" x="-350" y="350"/><use xlink:href="#L1_695" x="0" y="350"/><use xlink:href="#L1_695" x="350" y="350"/></pattern><rect x="0" y="0" width="100%" height="100%" fill="url(#pattern_L1_695)"/></g><g fi:class="KUsePattern"><pattern id="pattern_L1_696" width="350" height="350" patternUnits="userSpaceOnUse"><use xlink:href="#L1_696" x="-350" y="-350"/><use xlink:href="#L1_696" x="0" y="-350"/><use xlink:href="#L1_696" x="350" y="-350"/><use xlink:href="#L1_696" x="-350" y="0"/><use xlink:href="#L1_696" x="0" y="0"/><use xlink:href="#L1_696" x="350" y="0"/><use xlink:href="#L1_696" x="-350" y="350"/><use xlink:href="#L1_696" x="0" y="350"/><use xlink:href="#L1_696" x="350" y="350"/></pattern><rect x="0" y="0" width="100%" height="100%" fill="url(#pattern_L1_696)"/></g><g fi:class="KUsePattern"><pattern id="pattern_L1_697" width="350" height="350" patternUnits="userSpaceOnUse"><use xlink:href="#L1_697" x="-350" y="-350"/><use xlink:href="#L1_697" x="0" y="-350"/><use xlink:href="#L1_697" x="350" y="-350"/><use xlink:href="#L1_697" x="-350" y="0"/><use xlink:href="#L1_697" x="0" y="0"/><use xlink:href="#L1_697" x="350" y="0"/><use xlink:href="#L1_697" x="-350" y="350"/><use xlink:href="#L1_697" x="0" y="350"/><use xlink:href="#L1_697" x="350" y="350"/></pattern><rect x="0" y="0" width="100%" height="100%" fill="url(#pattern_L1_697)"/></g><g fi:class="KUsePattern"><pattern id="pattern_L1_698" width="350" height="350" patternUnits="userSpaceOnUse"><use xlink:href="#L1_698" x="-350" y="-350"/><use xlink:href="#L1_698" x="0" y="-350"/><use xlink:href="#L1_698" x="350" y="-350"/><use xlink:href="#L1_698" x="-350" y="0"/><use xlink:href="#L1_698" x="0" y="0"/><use xlink:href="#L1_698" x="350" y="0"/><use xlink:href="#L1_698" x="-350" y="350"/><use xlink:href="#L1_698" x="0" y="350"/><use xlink:href="#L1_698" x="350" y="350"/></pattern><rect x="0" y="0" width="100%" height="100%" fill="url(#pattern_L1_698)"/></g><g fi:class="KUsePattern"><pattern id="pattern_L1_699" width="350" height="350" patternUnits="userSpaceOnUse"><use xlink:href="#L1_699" x="-350" y="-350"/><use xlink:href="#L1_699" x="0" y="-350"/><use xlink:href="#L1_699" x="350" y="-350"/><use xlink:href="#L1_699" x="-350" y="0"/><use xlink:href="#L1_699" x="0" y="0"/><use xlink:href="#L1_699" x="350" y="0"/><use xlink:href="#L1_699" x="-350" y="350"/><use xlink:href="#L1_699" x="0" y="350"/><use xlink:href="#L1_699" x="350" y="350"/></pattern><rect x="0" y="0" width="100%" height="100%" fill="url(#pattern_L1_699)"/></g><g fi:class="KUsePattern"><pattern id="pattern_L1_700" width="350" height="350" patternUnits="userSpaceOnUse"><use xlink:href="#L1_700" x="-350" y="-350"/><use xlink:href="#L1_700" x="0" y="-350"/><use xlink:href="#L1_700" x="350" y="-350"/><use xlink:href="#L1_700" x="-350" y="0"/><use xlink:href="#L1_700" x="0" y="0"/><use xlink:href="#L1_700" x="350" y="0"/><use xlink:href="#L1_700" x="-350" y="350"/><use xlink:href="#L1_700" x="0" y="350"/><use xlink:href="#L1_700" x="350" y="350"/></pattern><rect x="0" y="0" width="100%" height="100%" fill="url(#pattern_L1_700)"/></g><g fi:class="KUsePattern"><pattern id="pattern_L1_701" width="350" height="350" patternUnits="userSpaceOnUse"><use xlink:href="#L1_701" x="-350" y="-350"/><use xlink:href="#L1_701" x="0" y="-350"/><use xlink:href="#L1_701" x="350" y="-350"/><use xlink:href="#L1_701" x="-350" y="0"/><use xlink:href="#L1_701" x="0" y="0"/><use xlink:href="#L1_701" x="350" y="0"/><use xlink:href="#L1_701" x="-350" y="350"/><use xlink:href="#L1_701" x="0" y="350"/><use xlink:href="#L1_701" x="350" y="350"/></pattern><rect x="0" y="0" width="100%" height="100%" fill="url(#pattern_L1_701)"/></g><g fi:class="KUsePattern"><pattern id="pattern_L1_702" width="350" height="350" patternUnits="userSpaceOnUse"><use xlink:href="#L1_702" x="-350" y="-350"/><use xlink:href="#L1_702" x="0" y="-350"/><use xlink:href="#L1_702" x="350" y="-350"/><use xlink:href="#L1_702" x="-350" y="0"/><use xlink:href="#L1_702" x="0" y="0"/><use xlink:href="#L1_702" x="350" y="0"/><use xlink:href="#L1_702" x="-350" y="350"/><use xlink:href="#L1_702" x="0" y="350"/><use xlink:href="#L1_702" x="350" y="350"/></pattern><rect x="0" y="0" width="100%" height="100%" fill="url(#pattern_L1_702)"/></g><g fi:class="KUsePattern"><pattern id="pattern_L1_703" width="350" height="350" patternUnits="userSpaceOnUse"><use xlink:href="#L1_703" x="-350" y="-350"/><use xlink:href="#L1_703" x="0" y="-350"/><use xlink:href="#L1_703" x="350" y="-350"/><use xlink:href="#L1_703" x="-350" y="0"/><use xlink:href="#L1_703" x="0" y="0"/><use xlink:href="#L1_703" x="350" y="0"/><use xlink:href="#L1_703" x="-350" y="350"/><use xlink:href="#L1_703" x="0" y="350"/><use xlink:href="#L1_703" x="350" y="350"/></pattern><rect x="0" y="0" width="100%" height="100%" fill="url(#pattern_L1_703)"/></g><g fi:class="KUsePattern"><pattern id="pattern_L1_704" width="350" height="350" patternUnits="userSpaceOnUse"><use xlink:href="#L1_704" x="-350" y="-350"/><use xlink:href="#L1_704" x="0" y="-350"/><use xlink:href="#L1_704" x="350" y="-350"/><use xlink:href="#L1_704" x="-350" y="0"/><use xlink:href="#L1_704" x="0" y="0"/><use xlink:href="#L1_704" x="350" y="0"/><use xlink:href="#L1_704" x="-350" y="350"/><use xlink:href="#L1_704" x="0" y="350"/><use xlink:href="#L1_704" x="350" y="350"/></pattern><rect x="0" y="0" width="100%" height="100%" fill="url(#pattern_L1_704)"/></g></svg>